<svg xmlns="http://www.w3.org/2000/svg" version="1.1" xmlns:xlink="http://www.w3.org/1999/xlink" width="512" height="512" x="0" y="0" viewBox="0 0 60 60" style="enable-background:new 0 0 512 512" xml:space="preserve" class=""><g><path d="M58.266 18.525 53 14.914V3a3 3 0 0 0-3-3H10a3 3 0 0 0-3 3v11.914L1.742 18.52A3.942 3.942 0 0 0 0 21.8v34.22A3.994 3.994 0 0 0 4 60h52a3.994 3.994 0 0 0 4-3.98V21.8a3.939 3.939 0 0 0-1.734-3.275Zm-.453 38.318L35.243 39.71 58 22.041V56.02a1.947 1.947 0 0 1-.187.823Zm-.674-36.666L53 23.391v-6.053ZM10 2h40a1 1 0 0 1 1 1v21.944L33.594 38.458l-.6-.455a4.97 4.97 0 0 0-5.989 0l-.6.454L9 24.944V3a1 1 0 0 1 1-1ZM2.187 56.843A1.947 1.947 0 0 1 2 56.02V22.041L24.757 39.71ZM7 17.338v6.053l-4.139-3.214ZM4 58a.23.23 0 0 1-.026 0l24.241-18.4a2.96 2.96 0 0 1 3.569 0L56.026 58A.23.23 0 0 1 56 58Z" fill="#ffffff" opacity="1" data-original="#000000" class=""></path><path d="M34.5 18a1.831 1.831 0 0 0 1.826-1.53l1.658-9.294a1 1 0 1 0-1.968-.352L34.5 15.318l-1.516-8.494a1 1 0 0 0-1.968.352l1.658 9.294A1.831 1.831 0 0 0 34.5 18ZM25.5 13a1.5 1.5 0 1 1-1.47 1.8 1 1 0 0 0-1.961.4A3.5 3.5 0 1 0 25.5 11a1.5 1.5 0 1 1 1.47-1.8 1 1 0 0 0 1.961-.4A3.5 3.5 0 1 0 25.5 13ZM14 18a1 1 0 0 0 1-1v-4h1a2 2 0 0 1 2 2v2a1 1 0 0 0 2 0v-2a3.981 3.981 0 0 0-1.22-2.866A3.485 3.485 0 0 0 16.5 6H14a1 1 0 0 0-1 1v10a1 1 0 0 0 1 1Zm1-10h1.5a1.5 1.5 0 0 1 0 3H15ZM41 18a1 1 0 0 0 1-1v-4h1.5a3.5 3.5 0 0 0 0-7H41a1 1 0 0 0-1 1v10a1 1 0 0 0 1 1Zm1-10h1.5a1.5 1.5 0 0 1 0 3H42ZM14 23h32a1 1 0 0 0 0-2H14a1 1 0 0 0 0 2ZM40 26H20a1 1 0 0 0 0 2h20a1 1 0 0 0 0-2Z" fill="#ffffff" opacity="1" data-original="#000000" class=""></path></g></svg>